<svg id="Layer_1" data-name="Layer 1" xmlns="http://www.w3.org/2000/svg" viewBox="0 0 260 500"><defs><style>.cls-1{fill:#231f20;}</style></defs><title>001</title><path class="cls-1" d="M44.33,132.51c-7.81,1.57-7.71-12.8-6.7-17.07,1.42-6,5.06-10.85,9.57-14.88,10-9,21.43-16.77,32.21-24.86,4.81-3.61,11-9.92,17.37-10.19,4.68-.19,8.64,3.54,11.93,6.39,5.42,4.71,11.24,10.46,19,8.67a2.52,2.52,0,0,0,1.49-3.67Q121.61,64.35,114,51.81v2.52c7.44-11.07,17.21-22.8,30.09-27.59,14.41-5.34,25.48,3.27,35.82,12.5a445.39,445.39,0,0,1,58.5,64l.39-3-71.77,59c-11.91,9.8-23.52,20.5-36.16,29.34-5.3,3.71-11.3,7.16-17.94,7.31s-12.71-2.84-18-6.58c-10.82-7.69-18.81-18.6-27.84-28.17-7.43-7.89-16.28-16.32-27.19-18.88-3.34-.78-7.19-.81-9.79,1.83-3,3-2.61,7.86-.15,11.06,2.79,3.62,7.72,5.32,11.5,7.64a127.61,127.61,0,0,1,16.32,11.88c9.87,8.42,18.06,18.18,26,28.4,6.09,7.87,13.84,17.32,24.92,16.17,12-1.24,22.38-12.55,31.28-19.66l35.66-28.45,35.66-28.46,17.06-13.6c1.8-1.44,8.7-8.63,10.84-6.37,2.32,2.46-2.37,7.47-3.89,8.78C224,141.21,211.83,150,200.15,159.28l-35.7,28.23c-13.46,10.64-26.86,21.35-40.36,31.92-6.1,4.78-13.51,11-21.86,9.16-6.72-1.48-12-7.17-16.41-12.09-10-11.22-19-23-30-33.31a207.7,207.7,0,0,0-33.87-25.74c-2.76-1.68-5.27,2.65-2.52,4.32,23.66,14.37,42.13,33.46,59.71,54.56,6.56,7.87,15.16,17.73,26.39,17.62,12.14-.12,22.57-11.33,31.45-18.35l72.95-57.69L227,144.4c5-4,12-7.82,15.45-13.3,4.8-7.54-.11-18.82-9.35-12.16-11.92,8.61-23.12,18.44-34.61,27.61l-37.22,29.69c-11.88,9.49-23.72,19-35.66,28.46-5.49,4.33-12.4,10.32-19.93,9.61-6.55-.62-11.48-6.33-15.4-11.07-8.2-9.92-15.66-20.1-25.21-28.84a144.23,144.23,0,0,0-13.13-10.67Q48.06,161,44,158.46c-2.73-1.67-7.1-3.06-9.23-5.46-.88-1-2.27-4-1.12-5.38s3.49-.83,4.93-.55a28.75,28.75,0,0,1,8.69,3.64c5.71,3.36,10.59,8,15.16,12.75,9,9.38,16.85,20,27.15,28,9.85,7.73,21.51,12.07,33.65,7.1,6.52-2.67,12.13-7,17.58-11.39,6.61-5.33,13.13-10.79,19.69-16.18l81.81-67.27a2.49,2.49,0,0,0,.39-3c-19.59-25.95-41.75-51.95-67.52-72-10.33-8-22-11.28-34.36-6-13.3,5.64-23.29,17.39-31.16,29.12a2.45,2.45,0,0,0,0,2.52l15.26,25.09,1.49-3.67c-5.78,1.33-10.69-4.39-14.63-7.79-3.44-3-7.18-6.15-11.73-7.14-6.78-1.47-12.73,2.8-17.87,6.6-6.84,5-13.61,10.19-20.37,15.34C50.86,91.11,37,99.24,33,113.34c-2.38,8.53-.11,26.54,12.63,24,3.16-.63,1.82-5.45-1.33-4.82Z"/><path class="cls-1" d="M80.06,101.63c-1.86,2.41-4.67,3.3-6.87,5.31A11.36,11.36,0,0,0,69.5,114c-.55,5.66,3.93,9.14,9.28,7.78,5.62-1.43,10.78-5.43,12-11.28,1.06-5-1.35-12-7.45-10.94-3.17.54-1.83,5.36,1.32,4.82,1.09-.18,1.45,3.24,1.43,3.78a8.37,8.37,0,0,1-2.42,5.42c-1.52,1.53-5.13,3.82-7.44,3.56-4-.43-.71-5.85,1-7.13,2.24-1.65,4.56-2.63,6.31-4.88,1.94-2.51-1.57-6.08-3.54-3.54Z"/><path class="cls-1" d="M99.21,273.36,159.6,293.3c8.13,2.69,17.85,4.57,25.1,9.34C192.75,307.93,194.92,318,196,327c2.28,19.3,2.47,39,3.57,58.44l3.58,62.87,1.83-2.41a226.14,226.14,0,0,1-53.13,2.53,221.1,221.1,0,0,1-26.63-3.54c-7.69-1.5-17-2.63-23.91-6.56-7.81-4.46-8.86-13.65-9.4-21.81-.6-9.07-.91-18.18-1.19-27.27q-.84-27.27-.35-54.55.56-30.72,2.8-61.37a2.5,2.5,0,0,0-1.24-2.16c-6.48-4.26-10.5,4.36-11.11,9.55-1.24,10.78-.67,22-.91,32.87L78.3,383q-.4,17.85-.81,35.71c-.18,8-.76,17.55,5.34,23.73,5.87,5.95,16.34,8,23.94,10.67a290.62,290.62,0,0,0,30.3,9.08c22.61,5.22,45.75,5.74,67.43-3.43l-3.42-.9c2.65,4.51-.86,9.33-5.54,10-5.13.77-10.64.45-15.81.36a279.74,279.74,0,0,1-29.92-2.29,617.3,617.3,0,0,1-61.18-11.42c-9.53-2.2-14.59-7.44-16.53-17.06-1.89-9.35-1.38-19.31-.94-28.78.94-20.49,4-40.81,5.57-61.25,1.64-21.45,1.61-43.29-4-64.21-.83-3.11-5.65-1.79-4.82,1.33,12.28,46.09-3,93.29-2,139.86.18,8.45.74,18.06,5.53,25.35,5,7.63,13.66,9.12,22,10.91,22.78,4.88,45.68,9.61,68.93,11.62,6.42.55,12.86.9,19.31,1,5.22.05,11.08.56,16.19-.7,7.41-1.82,11.52-10.47,7.54-17.24a2.58,2.58,0,0,0-3.42-.9c-34.9,14.77-72.66,1.76-106.17-10.58-3.31-1.22-6.9-2.37-9.44-5-3.53-3.6-3.89-9.11-4-13.87-.13-9.37.36-18.78.58-28.14l1.31-57.53L85,307.59l.39-16.86c0-1.81.2-17.77,4-15.28l-1.24-2.16a1122.9,1122.9,0,0,0-2.32,119.88c.33,9.43.41,19,1.5,28.37.81,6.85,2.52,14,8,18.67s13.29,6.06,20.13,7.66a234.91,234.91,0,0,0,27.88,4.75,230.91,230.91,0,0,0,62.95-1.94,2.5,2.5,0,0,0,1.84-2.41q-3-52.06-5.93-104.13c-.72-12.74-.33-28.17-8-39.1-3.36-4.78-8.08-7.78-13.45-9.9-7.69-3-15.75-5.31-23.6-7.9l-56.61-18.7c-3.06-1-4.37,3.81-1.33,4.82Z"/><path class="cls-1" d="M160.63,291.66q-1.77,59.7-9.41,119h5q-1.82-56.84-8.15-113.39a2.51,2.51,0,0,0-4.91-.66l-13.37,38.26,4.92.66a280.2,280.2,0,0,0-8.2-55.55c-.79-3.12-5.61-1.8-4.82,1.33a273.55,273.55,0,0,1,8,54.22,2.51,2.51,0,0,0,4.91.67L148,297.94l-4.91-.67q6.35,56.52,8.15,113.39c.11,3.31,4.6,3.11,5,0q7.67-59.24,9.41-119c.09-3.22-4.91-3.22-5,0Z"/></svg>