<svg xmlns="http://www.w3.org/2000/svg" viewBox="0 0 320.98 491.58"><defs><style>.cls-1{isolation:isolate;}.cls-2{mix-blend-mode:multiply;}.cls-3{fill:#231f20;}</style></defs><title>Website-Sprout-Logo</title><g class="cls-1"><g id="Text"><path class="cls-3" d="M220.93,42.92,216.49,46l-8.88,6.18L202,56.27q.47-3.08.9-6.15c.59-4.67,1.25-9.32,1.74-14l.78-7a27.2,27.2,0,0,0-.68-5.58,1.51,1.51,0,0,0-2.38-.91l-4.16,3.11-5.57,4.63L181.5,39.57l-9.29,7.94c-.74-4.55-1.52-9.1-2.39-13.65q-1.56-8.12-3.34-16.23l-1.82-8.11A16.17,16.17,0,0,0,161,2.72a1.76,1.76,0,0,0-2.61,0,16,16,0,0,0-3.61,6.8L153,17.63q-1.78,8.11-3.34,16.23c-.87,4.55-1.65,9.1-2.39,13.65L138,39.57,121.26,25.68l-4.08-3.15a1.5,1.5,0,0,0-2.39.87,26.59,26.59,0,0,0-.75,5.66l.78,7c.49,4.7,1.15,9.35,1.74,14q.43,3.08.9,6.15l-5.6-4.07L103,46l-4.44-3.1s-4.16-1.09-3.79-.41c2.44,6.53,5.07,13,7.79,19.35,1.52,3.58,3.08,7.13,4.65,10.68s3.17,7.09,4.8,10.6v0a4,4,0,0,0,5.27,1.93l.57-.26A98.88,98.88,0,0,1,138.37,78a102.56,102.56,0,0,1,42.73,0,99.36,99.36,0,0,1,20.54,6.86l.55.26a4,4,0,0,0,5.27-1.93c1.64-3.52,3.22-7.06,4.81-10.6s3.13-7.11,4.65-10.69c2.72-6.39,5.36-12.83,7.81-19.36C225.09,41.81,220.93,42.92,220.93,42.92ZM117.09,75.27q-1.86-3-3.74-6-3.1-4.94-6.28-9.82-2.52-3.87-5.11-7.7a51.74,51.74,0,0,0,6.42,5.35,53.28,53.28,0,0,0,9.46,5.38l.64.26c.07.43.13.86.2,1.29.53,3.14,1.09,6.26,1.7,9.37C119.27,74,118.17,74.61,117.09,75.27Zm12.65-6.15-9.36-32.71,13.69,31ZM144.87,65c-1.59.28-3.17.61-4.75,1q-1.63-3.78-3.36-7.53c-1.95-4.25-4-8.47-6.07-12.68-1.59-3.12-3.14-6.25-4.75-9.36a91.79,91.79,0,0,0,8.17,7.74,94.72,94.72,0,0,0,11.78,8.49l.52.3C145.81,57,145.27,61,144.87,65Zm14.87-1.5V14.79s7.4,23.76,7.4,48.71Zm23-5c-1.15,2.51-2.28,5-3.37,7.54-1.57-.37-3.15-.7-4.74-1-.39-4-.94-8-1.54-12.07l.52-.3a94.72,94.72,0,0,0,11.78-8.49,91.79,91.79,0,0,0,8.17-7.74c-1.61,3.11-3.16,6.24-4.75,9.36C186.72,50,184.66,54.2,182.71,58.45Zm7.36,10.67,9-26.67-4.5,28.34Zm22.35-9.67c-2.13,3.25-4.21,6.53-6.29,9.81q-1.87,3-3.74,6c-1.09-.66-2.19-1.28-3.31-1.88.62-3.11,1.18-6.25,1.71-9.39.07-.42.13-.85.2-1.28l.65-.26a52.63,52.63,0,0,0,9.45-5.39,54,54,0,0,0,6.5-5.44Q215,55.54,212.42,59.45Z"/><path class="cls-3" d="M244.74,187.41a99,99,0,0,0-10.52-44.58h0l-.16-.3c-.45-.87-.9-1.74-1.37-2.59l-.57-1c-.35-.62-.71-1.24-1.07-1.86l-.66-1.07c-.36-.58-.71-1.16-1.08-1.73l-.69-1c-.38-.58-.77-1.15-1.16-1.71l-.69-1c-.42-.58-.84-1.16-1.28-1.74-.21-.28-.42-.57-.64-.85-.48-.62-1-1.23-1.46-1.84l-.55-.67c-.58-.7-1.17-1.39-1.76-2.06l-.34-.39a86.81,86.81,0,0,0-18.62-15.79,79.77,79.77,0,0,0-42.38-12.3c-27,0-52.66,14.18-68.63,37.92h0a97.33,97.33,0,0,0-16.36,54.57c0,18.33,4.94,41.48,13.55,63.51h0c.18.47.37.95.55,1.37a42.21,42.21,0,0,0,16,19.12c1.63,1.07,3.19,2.19,4.65,3.36a64.2,64.2,0,0,1,18.72,23.92,16.33,16.33,0,0,0,10.17,8.9,74.2,74.2,0,0,0,42.78,0,16.39,16.39,0,0,0,10.17-8.91,64.35,64.35,0,0,1,23.34-27.26,41,41,0,0,0,4.11-3.06l.15-.12a42.26,42.26,0,0,0,10.77-13.93,41.76,41.76,0,0,0,2.34-6C240.22,226.17,244.74,204.55,244.74,187.41Zm-32.16,73.08-.2.17a30.42,30.42,0,0,1-3.21,2.39,74.51,74.51,0,0,0-27,31.51,6.38,6.38,0,0,1-4,3.47,64.12,64.12,0,0,1-11,2.27q-.07-3-.18-6.08c1.08-1.18,2.17-2.34,3.24-3.52,2.08-2.3,4.18-4.57,6.24-6.89,4.15-4.61,8.25-9.27,12.35-13.93s8.16-9.36,12.18-14.09,8.49-9,11.24-15c-6,2.76-10.21,7.3-15,11.24s-9.4,8.12-14.09,12.18-9.32,8.2-13.93,12.35c-.92.81-1.83,1.64-2.74,2.47-.09-2.44-.19-4.89-.3-7.33-.14-3.24-.3-6.47-.45-9.71q3-3.37,6.05-6.79c2.82-3.2,5.59-6.44,8.36-9.68s5.52-6.52,8.23-9.82,5.79-6.25,7.44-10.61c-4.36,1.66-7.23,4.8-10.6,7.44s-6.55,5.48-9.82,8.23-10.07,8.7-10.27,8.88q-.16-3.51-.35-7-.33-5.75-.64-11.49c.25-.38,6.18-8,8.88-11.54,1.56-2.08,3.15-4.14,4.67-6.26s3.41-3.87,3.88-7c-3.17.47-4.86,2.43-7.05,3.88s-4.17,3.1-6.25,4.66q-2.44,1.89-4.87,3.81c-.1-1.71-.19-3.41-.3-5.11l-.9-14.54a67,67,0,0,0-2.46-14.54A66.43,66.43,0,0,0,157.29,199l-.9,14.54c-.11,1.7-.2,3.4-.31,5.11q-2.42-1.92-4.87-3.81c-2.08-1.56-4.13-3.14-6.25-4.66s-3.87-3.41-7-3.88c.47,3.17,2.42,4.86,3.87,7s3.11,4.18,4.67,6.26c2.71,3.52,8.64,11.18,8.89,11.55q-.33,5.73-.64,11.48l-.36,7c-.19-.18-7-6.1-10.26-8.88s-6.52-5.51-9.82-8.23-6.25-5.78-10.61-7.44c1.66,4.36,4.8,7.23,7.44,10.61s5.48,6.55,8.23,9.82,5.55,6.48,8.36,9.68q3,3.41,6.06,6.79c-.16,3.24-.31,6.47-.45,9.71-.12,2.44-.21,4.89-.3,7.33-.91-.83-1.82-1.66-2.74-2.47-4.62-4.15-9.28-8.25-13.94-12.35S127,256,122.23,252s-9-8.48-15-11.24c2.76,6,7.31,10.22,11.24,15s8.12,9.4,12.19,14.09,8.2,9.32,12.34,13.93c2.06,2.32,4.17,4.59,6.25,6.89,1.07,1.18,2.15,2.34,3.23,3.52q-.1,3-.18,6.08a63.59,63.59,0,0,1-11-2.27,6.32,6.32,0,0,1-3.94-3.45,74.44,74.44,0,0,0-21.63-27.65c-1.68-1.33-3.49-2.64-5.38-3.88a32.25,32.25,0,0,1-12.24-14.64l-.42-1A30,30,0,0,1,95.74,237v-.25A63.53,63.53,0,0,1,100.29,213a1.34,1.34,0,0,1,.07-.18,64.2,64.2,0,0,1,29.37-32.63.91.91,0,0,0,.17-.09,64.2,64.2,0,0,1,30.83-7.36l.52,0h.22a64.26,64.26,0,0,1,62.26,62.57v1a31.5,31.5,0,0,1-1.25,8.94,32.68,32.68,0,0,1-1.84,4.75A32.06,32.06,0,0,1,212.58,260.49ZM159.74,104.91a70.12,70.12,0,0,1,7.4.4,91.63,91.63,0,0,0-51.34,25.87l-.72-.12L114,130.9c-.8-.11-1.6-.22-2.41-.31l-1.32-.13c-.75-.07-1.51-.13-2.26-.18l-1.36-.07-.85,0C119.8,114.19,139.36,104.91,159.74,104.91ZM88.66,216.15a2.62,2.62,0,0,0,0-.28,69.3,69.3,0,0,1,1.25-17.58,96.06,96.06,0,0,1,5-17.5,81.18,81.18,0,0,1,8.35-16.27,47.47,47.47,0,0,1,5.77-7,67.34,67.34,0,0,1,7-6.09,17.22,17.22,0,0,0-9.14,3.6,49.39,49.39,0,0,0-7.18,6.75A82,82,0,0,0,88.8,178q-2.23,4.4-4.06,9a87.56,87.56,0,0,1,13.4-46.65c1.72-.15,3.49-.22,5.28-.22a63.29,63.29,0,0,1,13.07,1.35c1.08.23,2.15.49,3.22.78l1,.28c.74.22,1.48.44,2.22.68l1.1.37c.73.25,1.45.52,2.17.8l1,.38c1,.4,1.94.81,2.9,1.26l.15.07c1,.47,2,1,3,1.5.31.16.61.34.91.5q1,.57,2,1.17l1.76,1.1v0a73.33,73.33,0,0,0-14.44,21.86,74.21,74.21,0,0,0-32.44,37l-.06.19C90.06,211.66,89.32,213.9,88.66,216.15Zm38.61-82a80.26,80.26,0,0,1,53.13-19.79h.18a42.93,42.93,0,0,1,30.72,13.19q2.1,2.17,4,4.52c-.09,0-3.55-1.15-3.72-1.2-.64-.19-1.27-.38-1.91-.55l-1.12-.28c-.58-.15-1.17-.29-1.76-.42l-1.19-.26c-.58-.12-1.15-.23-1.73-.33-.41-.08-.81-.15-1.22-.21-.58-.1-1.16-.19-1.75-.27l-1.21-.16-1.82-.19-1.15-.11c-.67-.06-1.34-.09-2-.13l-.82-.05h-.17q-1.5-.06-3-.06c-1.08,0-2.15,0-3.21.07l-1.07.07c-.62,0-1.25.06-1.87.12l-.26,0-1.26.14c-.64.06-1.28.13-1.91.21l-1.33.2c-.61.09-1.22.18-1.82.29l-1.36.26c-.59.12-1.18.23-1.76.36l-1.37.32-1.72.44-1.35.38c-.57.16-1.14.33-1.7.51l-1.33.43c-.57.19-1.13.39-1.69.6l-1.29.47c-.57.22-1.14.45-1.7.69-.41.17-.83.33-1.23.51l-1.75.8-1.13.53c-.63.31-1.26.64-1.89,1-.31.16-.62.31-.92.48-.92.5-1.83,1-2.73,1.55l0,0c-.91.55-1.81,1.12-2.69,1.7l-.8.55c-.61.42-1.22.84-1.82,1.27l-1,.72-1.27,1h0c-.66-.47-1.33-.93-2-1.37l-.55-.35-.23-.15-.49-.31-.74-.46-.73-.43-1.26-.74-.38-.21-.46-.26q-.74-.41-1.47-.78c-.21-.11-.42-.23-.63-.33l-.46-.23-.43-.21-1.24-.61-.21-.09c-.5-.24-1-.46-1.51-.68l-.14-.07-.3-.12c-.24-.11-.48-.2-.72-.3l-1.49-.61-.68-.26-.39-.15-1.22-.44C127.61,134.24,127.44,134.17,127.27,134.12Zm104.52,79.21-.31-3.63c-.33-2.92-.67-5.83-1.2-8.73a113.63,113.63,0,0,0-4.41-17.08A74.88,74.88,0,0,0,218.13,168a53,53,0,0,0-5.42-7,13.63,13.63,0,0,0-1.6-1.53c-.57-.47-1.12-1-1.72-1.39A20.44,20.44,0,0,0,205.5,156a34.86,34.86,0,0,0,2.34,3.66c.73,1.22,1.58,2.29,2.32,3.46a50.26,50.26,0,0,1,4.07,7.13,74,74,0,0,1,5.18,15.55c.74,3.22,1.28,6.48,1.7,9.76-.56-.83-1.14-1.64-1.74-2.44-.15-.22-.31-.43-.47-.64-.63-.83-1.28-1.66-1.94-2.48l-.06-.06c-.65-.79-1.33-1.57-2-2.34l-.54-.6c-.71-.78-1.44-1.56-2.19-2.31a73.63,73.63,0,0,0-50.32-21.87l-1,0c-.88,0-1.75,0-2.63,0l-.9,0-1.75.08-1,.06c-.57,0-1.15.09-1.72.15l-.92.09c-.72.07-1.45.16-2.17.26l-.43.06c-.88.12-1.75.26-2.62.42L146,164l-2,.4-.79.18c-.62.14-1.25.29-1.87.45l-.74.19c-.71.19-1.42.39-2.12.6l-.31.09.39-.59c.43-.63.88-1.25,1.34-1.87.32-.44.64-.88,1-1.3.5-.64,1-1.25,1.53-1.87.33-.39.65-.78,1-1.17.58-.66,1.19-1.3,1.8-1.93l.89-.94c.93-.92,1.87-1.82,2.85-2.68l0,0h0a63.1,63.1,0,0,1,41.75-15.76c.8,0,1.6,0,2.39,0l.8.05q.8,0,1.59.09c.32,0,.64.06,1,.09l1.4.13,1,.13c.45.06.89.11,1.33.18l1.05.17c.43.08.86.14,1.28.23s.71.14,1.06.21.84.17,1.25.27l1.06.26,1.23.31,1.06.3,1.2.35,1.06.34,1.17.4,1,.38,1.16.44c.35.13.69.28,1,.42l1.13.48,1,.47,1.12.52,1,.5,1.1.57,1,.54,1.08.61,1,.58,1.07.66,1.46.95h0a89.14,89.14,0,0,1,8.87,38.92A130.92,130.92,0,0,1,231.79,213.33Zm2,22.94h0Z"/><path class="cls-3" d="M99.67,397.24c.5.57.09,1.08-.72,1.19Q87.19,400,75.49,402.09a2.31,2.31,0,0,1-2.11-.71Q67.17,391.09,61,380.94l-.12,22.73a1.85,1.85,0,0,1-1.51,1.61q-8.88,1.91-17.71,4.15a1.07,1.07,0,0,1-1.38-.93q.18-30.3.37-60.6a2.05,2.05,0,0,1,1.4-1.73Q50.88,344,59.72,342a1.11,1.11,0,0,1,1.5,1q-.06,10.28-.11,20.53,6.06-11.67,12.14-23.2a3.63,3.63,0,0,1,2.32-1.52q11-2,22.07-3.49c.81-.11,1.11.31.71,1q-10.06,15.85-20.1,32.13Q88.92,382.65,99.67,397.24Zm33.55-65.33a1.33,1.33,0,0,1,1.52,1.29l-.09,60.55a1.52,1.52,0,0,1-1.53,1.37q-9,.57-18,1.45a1.29,1.29,0,0,1-1.42-1.14l.15-60.56a1.66,1.66,0,0,1,1.42-1.51Q124.22,332.48,133.22,331.91Zm77.36,1.26a1.61,1.61,0,0,1,1.52,1.52l.15,60.56a1.26,1.26,0,0,1-1.52,1.13q-8.8-.83-17.62-1.35a3,3,0,0,1-2.14-1.31q-8.9-14.73-17.77-29.14,0,14.19,0,28.39a1.39,1.39,0,0,1-1.53,1.26q-9-.14-18.07,0a1.36,1.36,0,0,1-1.43-1.26q0-30.27,0-60.54a1.44,1.44,0,0,1,1.42-1.41q8.81-.18,17.61-.05a2.81,2.81,0,0,1,2.34,1.23q8.81,14.42,17.63,29.15,0-14.16,0-28.31a1.37,1.37,0,0,1,1.42-1.29Q201.61,332.32,210.58,333.17Zm75.16,37.45a2.09,2.09,0,0,1,1.5,1.67l.18,29.15a2.18,2.18,0,0,1-1.18,1.9c-5.95,3.14-15.14,3.71-24.8,1.78-21.74-4.32-36.44-19-36.48-38.87s14.5-31.42,36.16-27.11a50.19,50.19,0,0,1,21,10A1.76,1.76,0,0,1,283,351l-4.9,12.27c-.29.57-1,.68-1.89.29a38.57,38.57,0,0,0-14.43-6.34c-9.23-1.85-15.46,3.19-15.42,12.16,0,9.18,6.32,16.23,15.57,18.08,3.72.75,6.22.66,7.32-.2l0-5.32q-4.61-1-9.23-1.91a1.81,1.81,0,0,1-1.62-1.33q-.67-6.45-1.36-12.89c-.11-.94.49-1.47,1.6-1.25Q272.25,367.2,285.74,370.62ZM269.87,386v0Z"/><path class="cls-3" d="M59.57,420.44l6.75-1.66,2.44.44c0,.92.07,1.83.1,2.75l-1.77,1.2q.33,9.6.89,19.22l1.92.31c.06.92.11,1.83.17,2.75l-2.47,1.62L60,448.83l-2.61-.44c0-.92-.07-1.83-.1-2.75l1.87-1.2q-.3-7.5-.48-15-2.58,7.49-5.22,15l-3.55.82Q47.2,439,44.68,432.78q0,7.52.07,15l1.93.31c0,.92,0,1.83,0,2.75l-2.57,1.62-4.2,1L37.35,453c0-.92,0-1.83,0-2.75l1.93-1.2q0-9.6.16-19.22l-1.85-.31c0-.92,0-1.83.07-2.75l2.5-1.63,7.06-1.69,2.28,1.24q1.91,4.24,3.92,8.5,1.95-5.19,3.87-10.39ZM74,427.13c.24-6.17,3.73-10.78,11.37-12,3.89-.62,5.19.87,5.92.75.56-.09.92-.55,1.12-1.48l2.88-.46q0,4.72.05,9.44l-3.79.6c-1.27-3.16-2.74-4.14-5.3-3.73-2.71.43-3.52,1.65-3.58,4.65-.06,3.63-.12,7.27-.16,10.91,0,2.87,1.06,3.92,4.27,3.43,2.87-.44,4.76-2,6.61-4.3.82-1,3-.58,2.28,1.27a12.67,12.67,0,0,1-10.59,8.56c-7.79,1.18-11.59-2.34-11.38-8.5Q73.86,431.69,74,427.13Zm50.91,3.36,0,1.92c.09,5.56-3.68,7.87-9.82,8.42L102.35,442l-2.88-.8c0-.94.07-1.88.11-2.82l1.87-.95q.36-9.85.79-19.73l-1.73-.61c0-.94.09-1.88.14-2.82l2.79-1.33,11.18-1.07c5.75-.56,9.23,1.07,9.28,6.62,0,.4,0,.79,0,1.19,0,2.41-1.34,4.34-3.78,5.59C123.09,425.92,124.9,427.67,124.94,430.49Zm-12.16-6.83c2.35-.22,3.08-.7,3.1-2.82,0-.49,0-1,0-1.47,0-2.13-.69-2.55-3-2.33l-2.68.26c0,2.2-.11,4.41-.16,6.62Zm.28,12.34c2.62-.24,3.45-.81,3.46-3.13,0-.63,0-1.26,0-1.88,0-2.33-.8-2.79-3.38-2.55l-3.19.3q-.09,3.78-.15,7.56Zm38.71-2,2.49,1,.06,2.83L151.89,439l-5.17.18-2.62-1.92q-1.84-4.53-3.6-9.06l-1.79.06q-.06,3.27-.1,6.52l1.81.72,0,2.83-2.47,1.15-7.22.25-2.43-1c0-.94.07-1.88.1-2.83l1.85-.84q.32-9.9.67-19.81l-1.71-.72c0-.94.08-1.88.11-2.83L132,410.5l11.69-.42c5.69-.21,9.27,2.08,9.37,7.86l0,2c.07,3.69-1.54,6-4.46,7.17Q150.2,430.54,151.77,434Zm-10.18-10.31c2.54-.09,3.47-.86,3.47-3.4,0-.73,0-1.45,0-2.17,0-2.55-.9-3-3.39-2.92l-2.77.1c0,2.83-.09,5.66-.14,8.49Zm30.47-9.86c0-.95,0-1.89,0-2.84l2.17-1,6.84.12,2.34,1.11c0,.94.07,1.89.1,2.83l-1.71.75q.24,7.26.46,14.53c.21,6.24-3.14,10-9,9.94l-4.8-.08c-5.85-.1-9.43-4.06-9.29-10.26q.15-7.26.29-14.53l-1.71-.81.06-2.83,2.33-1,6.82.13,2.19,1.1c0,.95,0,1.89,0,2.83l-1.61.76,0,15.43c0,3.2,1,4.16,3.21,4.2s3.21-1,3.17-4.09q-.1-7.72-.2-15.43ZM209.35,433c.21,5.37-2.13,8.23-11.12,7.62-4.33-.3-5.53-2.1-6.37-2.16-.54,0-.92.47-1.09,1.24l-2.92-.21.09-8.72,3.69.26c1.27,3.45,3.1,4.43,5.67,4.61,3.24.23,4.51-.42,4.48-2l0-1.23c0-2-2.18-2.11-6.36-3.18-3.73-1-7.74-2.88-7.68-9.59,0-.59,0-1.18,0-1.76,0-4.79,3.25-7.67,9.32-7.23,4.39.33,5.26,1.9,6.09,2,.52,0,.78-.23,1-1l2.72.19q.16,4.17.32,8.32l-3.45-.25c-1.22-3.27-2.74-4-5.48-4.2-2.14-.15-3.56.32-3.54,2v.86c0,2.29,2.83,2.61,7.12,3.74,3.59.95,7.27,2.92,7.52,9.19ZM235,436.08c.2,5.33-2.2,8.05-11.3,6.94-4.36-.53-5.58-2.39-6.42-2.49-.54-.07-.93.42-1.1,1.17l-2.95-.36c0-2.89.08-5.79.11-8.68l3.72.47c1.28,3.5,3.13,4.58,5.73,4.9,3.27.4,4.56-.17,4.53-1.76,0-.41,0-.81,0-1.22,0-2-2.21-2.23-6.43-3.53-3.78-1.16-7.82-3.3-7.77-10,0-.58,0-1.16,0-1.75,0-4.76,3.26-7.43,9.4-6.63,4.45.57,5.34,2.19,6.18,2.3.52.06.79-.19,1-1l2.76.35c.12,2.76.23,5.51.34,8.27l-3.5-.44c-1.24-3.32-2.78-4.13-5.56-4.49-2.17-.28-3.6.11-3.58,1.78,0,.28,0,.57,0,.85,0,2.28,2.86,2.77,7.2,4.13,3.65,1.15,7.38,3.32,7.62,9.55Zm18-5.59.93-2,2,.38,1,2.4c0,1.51.05,3,.07,4.55-.32.67-.64,1.35-1,2l-2-.38-1-2.4-3.83-.72q0,3.58,0,7.17l8.2,1.52c.57-1.39,1.12-2.77,1.66-4.15l3.11.58c.05,2.4.1,4.8.13,7.2l-2.05,1.84q-9.37-1.71-18.62-3.43l-2.91-1.59.09-2.78,1.88-.42q.27-9.72.36-19.45l-1.78-1.11c0-.93,0-1.86,0-2.78l2.79-.5,18.9,3.69c.11,3.07.21,6.15.3,9.22l-2.92-.56c-.45-1.5-.9-3-1.34-4.5l-7.82-1.51c0,2.34,0,4.67,0,7Zm26.46-1.86-2.29.22q-.21,9.31-.64,18.63l6.43,1.65q1.31-2.85,2.58-5.7l3.18.82q-.07,4.5-.2,9l-2.2,1.63q-9-2.28-17.91-4.57l-2.94-1.8c.07-.91.13-1.81.19-2.72l2-.26q.6-9.52,1-19.06l-1.8-1.25c0-.91.07-1.81.11-2.72l2.47-.36,7.27,2,2.87,1.8C279.42,426.81,279.41,427.72,279.39,428.63Zm-192,49.53c.14,5.29-2.21,8.7-11.46,10.24-4.45.74-5.71-.75-6.57-.6-.56.09-.95.68-1.13,1.48l-3,.5c0-2.87.08-5.74.13-8.6l3.84-.65c1.29,3.09,3.18,3.62,5.84,3.17,3.33-.56,4.64-1.51,4.62-3.09,0-.4,0-.8,0-1.21,0-2-2.21-1.56-6.53-1.6-3.85,0-8-.93-7.85-7.56,0-.58,0-1.15,0-1.73.14-4.73,3.63-8.39,9.93-9.51,4.55-.81,5.4.54,6.26.39.52-.1.81-.43,1-1.27l2.79-.5c0,2.73,0,5.47.08,8.2l-3.54.62c-1.17-2.95-2.72-3.28-5.55-2.79-2.22.39-3.72,1.22-3.74,2.88,0,.28,0,.56,0,.84,0,2.27,2.88,1.88,7.28,1.93,3.7,0,7.4,1.1,7.56,7.28C87.35,477.11,87.36,477.63,87.38,478.16Zm14.27,1.64,1.84.58c0,.94,0,1.88,0,2.82L101,484.52l-7.45.78L91,484.5c0-.94.07-1.87.1-2.81l1.89-1q.3-9.86.7-19.71L92,460.43c0-.94.08-1.88.13-2.82l2.82-1.36,11.82-1.32c5.82-.65,9.44,1.39,9.51,7.35,0,.75,0,1.5,0,2.24.07,6-3.65,8.77-9.74,9.42l-4.78.52C101.7,476.24,101.67,478,101.65,479.8Zm2.8-10.36c2.6-.28,3.54-1,3.56-3.53,0-1,0-2.06,0-3.1,0-2.53-.9-2.91-3.44-2.63l-2.59.28q-.1,4.64-.19,9.26Zm38.77,7.15,2.52,1c0,.94,0,1.88,0,2.83l-2.46,1.18-5.21.25-2.64-1.88q-1.84-4.51-3.6-9l-1.81.09-.12,6.52,1.83.69c0,.94,0,1.88,0,2.83l-2.5,1.18-7.29.35-2.45-.95c0-.94.07-1.89.11-2.83l1.87-.87q.34-9.9.72-19.8l-1.73-.69.12-2.83,2.79-1.2,11.83-.6c5.76-.29,9.37,1.94,9.45,7.72,0,.66,0,1.32,0,2,0,3.69-1.6,6-4.55,7.24C141.14,472,142.17,474.3,143.22,476.59ZM133,466.43c2.57-.13,3.51-.91,3.52-3.45,0-.73,0-1.45,0-2.18,0-2.54-.9-3-3.42-2.86l-2.8.14q-.09,4.25-.17,8.49Zm30.88,15.15-5.37,0c-6.15,0-9.62-3.92-9.4-10.16q.17-4.62.31-9.24c.23-6.24,3.74-10.07,9.48-10l5,0c5.74,0,9.2,4,9.33,10.16.06,3.08.11,6.16.17,9.24C173.56,477.79,170,481.62,163.87,481.58Zm.93-9.19v-11c0-3.2-.92-4.15-3.43-4.17-2.67,0-3.44,1.08-3.49,4.12,0,3.68-.11,7.36-.16,11-.05,3,.72,4.15,3.5,4.17C163.84,476.53,164.8,475.59,164.8,472.39Zm27.34-15.29c0-.94,0-1.88,0-2.82l2.2-.94,6.94.4,2.39,1.2c0,.95.07,1.89.1,2.83l-1.73.68q.24,7.26.46,14.51c.2,6.23-3.2,9.89-9.12,9.57l-4.84-.27c-5.92-.32-9.52-4.42-9.39-10.61q.15-7.25.26-14.51c-.59-.29-1.17-.58-1.74-.88,0-.94,0-1.88.05-2.82l2.35-.93,6.91.4,2.22,1.2c0,.94,0,1.88,0,2.82l-1.63.69q0,7.69,0,15.41c0,3.19,1,4.19,3.24,4.32s3.25-.93,3.21-4q-.09-7.71-.21-15.41ZM213.67,460c-.76-.09-.93,0-1.13.93-.35,1.54-.7,3.09-1.06,4.64l-3.67-.44c0-2.07.07-4.15.11-6.23.06-3.95.9-4.51,4.17-4.11l15.82,1.93c3.3.4,4.18,1.15,4.32,5.1q.12,3.12.22,6.24l-3.71-.44q-.59-2.44-1.15-4.89c-.23-1-.39-1.1-1.16-1.2l-2.24-.26q.18,9.62.27,19.23l2.29,1.12c0,.94,0,1.88,0,2.82l-2.5.77-8.3-.95-2.49-1.35c0-.94,0-1.87,0-2.81l2.28-.59q.09-9.63.07-19.24Zm45.06,22.83c0,5.28-2.5,7.82-11.77,6.19-4.45-.79-5.64-2.71-6.5-2.86-.55-.1-1,.36-1.16,1.09l-3-.53q.18-4.31.34-8.59l3.79.68c1.22,3.55,3.08,4.73,5.73,5.21,3.34.59,4.68.1,4.69-1.47,0-.4,0-.81,0-1.21,0-2-2.2-2.33-6.49-3.88-3.84-1.38-7.92-3.75-7.72-10.36,0-.58,0-1.16,0-1.74.14-4.72,3.5-7.15,9.8-6,4.56.86,5.45,2.51,6.31,2.67.53.1.82-.13,1-.9l2.84.53c.05,2.73.1,5.46.13,8.19l-3.59-.66c-1.18-3.36-2.76-4.26-5.6-4.78-2.22-.42-3.7-.13-3.72,1.53,0,.28,0,.56,0,.84,0,2.26,2.87,2.92,7.3,4.53,3.71,1.37,7.49,3.74,7.56,9.92C258.72,481.77,258.73,482.29,258.73,482.82Z"/></g></g></svg>